
<svg xmlns="http://www.w3.org/2000/svg" xml:space="preserve" fill-rule="evenodd" stroke-linejoin="round" stroke-miterlimit="2" clip-rule="evenodd" viewBox="0 0 200 140">
  <path fill="#d2222a" d="M163.894 1.105c-4.632 2.332-16.417 22.742-19.83 28.273-10.744 17.415-13.008 12.735-2.332 31.725 2.902 5.163 23.05 42.62 26.667 44.785 3.39 2.03 17.768 1.368 22.84 1.216 7.816-.234 10.97-6.541 7.123-13.498-4.612-8.341-25.157-42.55-25.925-46.166-1.648-7.762 19.665-32.2 19.166-39.63-.23-3.405-2.333-5.847-4.8-6.835-3.338-1.338-20.061-1.303-22.91.13ZM92.235 30.388c-4.24 1.505-5.808 6.239-8.043 9.905-3.673 6.026-2.095 8.14.937 13.176l26.421 44.375c6.37 10.77 4.53 9.656 26.583 9.267 5.2-.092 9.38-2.923 9.176-8.284-.17-4.457-27.75-49.535-31.852-56.671-1.773-3.085-4.81-9.191-6.975-10.73-2.753-1.957-12.81-2.258-16.247-1.038Zm-51.167-.023c-4.066 1.37-5.567 5.536-7.732 9.537-2.94 5.434-3.1 7.487.119 12.804 3.877 6.406 29.488 50.808 32.319 52.901 2.501 1.85 11.424 2.283 15.362 1.04 3.937-1.243 5.36-5.518 7.49-9.49 2.949-5.503 3.537-7.097.253-12.69-3.885-6.617-28.718-51.033-31.986-53.24-2.885-1.95-12.608-1.947-15.825-.862ZM20.11 67.097c-4.74 1.56-6.338 6.317-8.994 10.9-2.536 4.379-4.975 8.43-7.56 12.76-10.451 17.514 4.34 16.319 15.92 16.335 8.717.012 10.222.84 14.251-5.177 2.323-3.467 7.158-9.133 5.092-14.536-1.1-2.878-5.293-9.672-7.074-12.638-2.468-4.11-4.937-9.85-11.634-7.644Z"/>
  <path fill="#ffe6e6" fill-rule="nonzero" d="M12.931 136.006c-.392.19-.914.351-1.573.49a9.747 9.747 0 0 1-2.02.214c-1.76-.016-3.128-.603-4.099-1.752-.991-1.105-1.485-2.545-1.485-4.322 0-1.788.502-3.257 1.506-4.406.959-1.158 2.29-1.748 3.997-1.765.595 0 1.186.053 1.768.158a6.79 6.79 0 0 1 1.793.745l.227-2.849c-1.3-.465-2.538-.696-3.71-.696-5.9.065-8.907 3.083-9.02 9.056.012 2.86.862 4.977 2.537 6.353 1.619 1.412 3.779 2.12 6.482 2.12a14.802 14.802 0 0 0 3.735-.526l-.138-2.82Zm6.042-11.249h1.076c.42 0 .846.008 1.27.024.405.049.774.146 1.102.287.327.154.602.377.825.672.181.312.274.728.274 1.25 0 .51-.093.93-.274 1.259a2.198 2.198 0 0 1-.825.708 3.306 3.306 0 0 1-1.102.324c-.424.064-.85.097-1.27.097h-1.076v-4.621Zm-3.294 14.304h3.294v-7.045h1.056c.676 0 1.177.133 1.505.392.316.276.575.733.781 1.364l1.974 5.289h3.662l-2.638-6.628a4.458 4.458 0 0 0-.655-1.141 1.604 1.604 0 0 0-1.093-.615v-.049c1.077-.158 1.906-.598 2.497-1.327.599-.729.898-1.594.898-2.598-.012-1.186-.238-2.096-.675-2.727a3.573 3.573 0 0 0-1.838-1.352c-.748-.275-1.577-.436-2.488-.485a155.52 155.52 0 0 0-2.723-.024h-3.557v16.946Zm15.097 0h9.752v-2.643H34.07v-4.79h5.859v-2.639h-5.86v-4.232h6.414v-2.642h-9.707v16.946Zm22.749-6.527h-4.957l2.456-7.025h.045l2.456 7.025Zm-10.93 6.527h3.52l1.482-3.889h6.875l1.46 3.889h3.755l-6.648-16.946h-3.84l-6.604 16.946Zm20.26 0h3.295v-14.304h4.71v-2.642H58.142v2.642h4.714v14.304Zm10.25 0H76.4v-16.946h-3.294v16.946Zm11.011 0h4.042l5.523-16.946h-3.26l-4.169 13.308h-.044l-4.205-13.308h-3.536l5.649 16.946Zm12.196 0h9.752v-2.643h-6.459v-4.79h5.86v-2.639h-5.86v-4.232h6.414v-2.642h-9.707v16.946Zm27.479 0h-1.744l-1.825-4.528h-8.534l-1.837 4.528h-1.627l6.936-16.858h1.922l6.709 16.858Zm-11.488-5.985h7.36l-3.65-9.355-3.71 9.355Zm25.464-10.257-.19 1.541c-1.105-.599-2.468-.898-4.087-.898-2.137 0-3.84.631-5.119 1.902-1.275 1.266-1.914 2.957-1.914 5.066 0 1.432.288 2.711.862 3.836a5.84 5.84 0 0 0 2.525 2.577c1.109.595 2.327.89 3.658.89 1.17 0 2.274-.194 3.318-.582v-5.738h-3.937v-1.481h5.56v8.227c-.773.331-1.675.59-2.703.772-1.028.182-1.955.271-2.784.271-2.056 0-3.832-.635-5.325-1.91-1.951-1.675-2.926-3.973-2.926-6.899 0-2.536.79-4.564 2.375-6.086 1.586-1.521 3.731-2.281 6.442-2.281 1.534 0 2.95.262 4.245.793Zm4.969 16.242v-16.833h8.263v1.457h-6.64v5.964h6.296v1.456h-6.297v6.5h6.924v1.456h-8.546Zm12.03 0v-16.858h2.051l8.595 14.83v-14.83h1.554v16.858h-2.027l-8.656-14.842v14.842h-1.517Zm28.155-16.384-.117 1.436c-1.296-.437-2.53-.651-3.699-.651-1.319 0-2.529.279-3.63.845a5.758 5.758 0 0 0-2.513 2.513c-.574 1.113-.86 2.412-.86 3.905 0 1.449.274 2.687.828 3.723.55 1.036 1.392 1.833 2.517 2.391a8.168 8.168 0 0 0 3.658.834c1.303 0 2.517-.239 3.638-.724l.06 1.602a12.13 12.13 0 0 1-1.897.498c-.558.097-1.19.141-1.886.141-1.262 0-2.424-.182-3.484-.55-1.06-.369-1.942-.894-2.654-1.578a7.509 7.509 0 0 1-1.66-2.327c-.578-1.242-.865-2.61-.865-4.103 0-1.17.177-2.266.538-3.285.36-1.016.846-1.874 1.46-2.566.611-.692 1.263-1.222 1.947-1.594a9.336 9.336 0 0 1 2.307-.858c.85-.202 1.747-.303 2.698-.303.615 0 1.255.064 1.918.19.664.133 1.23.287 1.696.461Zm4.46-.474 5.166 8.227 5.313-8.227h1.825l-6.353 9.72v7.138h-1.626v-7.138l-6.269-9.72h1.943Z"/>
</svg>